<svg id="svg" version="1.1" xmlns="http://www.w3.org/2000/svg" xmlns:xlink="http://www.w3.org/1999/xlink" width="400" height="400" viewBox="0, 0, 400,400"><g id="svgg"><path id="path0" d="M192.024 92.045 C 186.858 92.504,177.828 95.000,173.400 97.193 C 172.520 97.629,171.170 98.260,170.400 98.596 C 169.630 98.931,168.280 99.642,167.400 100.176 C 166.520 100.710,165.170 101.526,164.400 101.989 C 158.348 105.632,149.220 114.375,145.232 120.350 C 144.700 121.148,143.928 122.297,143.518 122.904 C 142.224 124.816,138.000 133.286,138.000 133.969 C 138.000 134.328,137.740 134.994,137.422 135.448 C 137.104 135.902,136.636 137.157,136.383 138.237 C 136.129 139.316,135.594 141.194,135.193 142.409 C 132.755 149.797,132.784 167.630,135.247 175.800 C 137.682 183.876,139.156 187.437,142.201 192.600 C 142.720 193.480,143.453 194.740,143.830 195.400 C 145.872 198.975,152.390 206.394,156.832 210.200 C 163.986 216.330,173.481 221.457,181.800 223.684 C 188.061 225.361,190.042 225.712,195.139 226.054 C 202.013 226.516,210.450 226.016,214.800 224.890 C 216.450 224.462,218.520 223.927,219.400 223.701 C 221.505 223.159,225.392 221.741,227.426 220.774 C 228.321 220.348,229.181 220.000,229.339 220.000 C 229.613 220.000,234.281 217.402,236.435 216.050 C 247.067 209.378,255.534 200.054,260.814 189.200 C 261.724 187.330,262.692 185.350,262.965 184.800 C 268.401 173.851,269.542 152.335,265.340 140.000 C 265.002 139.010,264.489 137.390,264.200 136.400 C 263.670 134.589,261.875 130.316,261.175 129.200 C 260.968 128.870,260.350 127.700,259.802 126.600 C 258.757 124.504,258.613 124.272,255.408 119.541 C 253.235 116.334,244.946 107.772,241.886 105.574 C 240.834 104.819,239.333 103.712,238.551 103.116 C 237.769 102.520,236.786 101.922,236.365 101.789 C 235.944 101.655,235.600 101.398,235.600 101.216 C 235.600 101.035,234.925 100.590,234.100 100.227 C 233.275 99.864,232.150 99.313,231.600 99.003 C 229.757 97.965,225.342 96.000,224.852 96.000 C 224.586 96.000,223.700 95.664,222.884 95.254 C 222.068 94.844,220.680 94.381,219.800 94.226 C 218.920 94.071,217.030 93.597,215.600 93.173 C 210.867 91.771,200.633 91.281,192.024 92.045 " stroke="none" fill="#24bcf4" fill-rule="evenodd"></path><path id="path1" d="M0.000 200.000 L 0.000 400.000 200.000 400.000 L 400.000 400.000 400.000 200.000 L 400.000 0.000 200.000 0.000 L 0.000 0.000 0.000 200.000 M208.338 87.831 C 211.992 88.178,215.970 88.792,217.188 89.196 C 218.404 89.600,220.120 90.051,221.000 90.199 C 221.880 90.346,223.140 90.714,223.800 91.016 C 224.460 91.318,225.992 91.930,227.205 92.376 C 238.780 96.631,252.760 107.761,259.391 118.000 C 260.886 120.310,262.407 122.650,262.771 123.200 C 264.406 125.677,267.533 132.814,268.904 137.200 C 271.499 145.501,271.734 147.105,271.903 157.600 C 272.069 167.909,272.132 167.288,269.994 176.600 C 269.090 180.543,266.288 188.382,265.135 190.200 C 264.995 190.420,264.170 191.950,263.300 193.600 C 254.819 209.693,236.638 223.991,219.590 227.975 C 217.934 228.362,215.949 228.887,215.178 229.141 C 210.157 230.798,190.470 230.718,185.659 229.021 C 184.746 228.699,182.874 228.231,181.499 227.982 C 180.125 227.733,178.820 227.384,178.600 227.206 C 178.380 227.027,177.300 226.610,176.200 226.279 C 174.185 225.672,169.913 223.877,168.800 223.171 C 168.470 222.961,167.480 222.433,166.600 221.997 C 156.066 216.780,143.288 204.168,138.031 193.800 C 137.585 192.920,137.048 191.930,136.837 191.600 C 136.046 190.360,134.000 185.714,134.000 185.157 C 134.000 184.839,133.742 184.209,133.426 183.758 C 132.862 182.953,131.684 178.939,130.621 174.200 C 129.763 170.374,128.783 162.073,128.792 158.712 C 128.803 154.690,130.533 141.817,131.170 141.021 C 131.355 140.789,131.708 139.644,131.954 138.476 C 132.200 137.308,132.740 135.598,133.153 134.676 C 133.567 133.754,134.039 132.550,134.202 132.000 C 134.929 129.555,139.410 121.093,141.086 119.000 C 141.262 118.780,141.732 118.093,142.130 117.474 C 144.535 113.729,151.347 106.483,155.363 103.400 C 156.222 102.740,157.392 101.829,157.963 101.375 C 161.763 98.353,171.869 92.750,174.572 92.167 C 175.247 92.022,176.438 91.579,177.219 91.185 C 177.999 90.790,179.349 90.345,180.219 90.196 C 181.088 90.047,182.880 89.577,184.200 89.152 C 186.345 88.461,195.316 87.377,199.951 87.248 C 200.913 87.222,204.688 87.484,208.338 87.831 M181.384 234.392 C 182.931 235.181,182.938 235.181,183.491 234.392 C 184.351 233.164,189.467 233.239,190.893 234.500 C 192.432 235.861,192.652 237.080,191.567 238.235 L 190.659 239.202 191.565 241.015 C 192.352 242.592,192.467 243.415,192.438 247.315 C 192.402 252.278,192.765 253.617,193.599 251.603 C 194.016 250.596,194.021 249.924,193.624 248.152 C 191.990 240.848,197.875 237.289,207.786 239.587 C 209.699 240.030,210.400 239.588,210.400 237.937 C 210.400 236.732,211.294 234.973,212.348 234.100 C 212.706 233.804,214.109 233.600,215.787 233.600 C 219.628 233.600,220.323 234.115,220.480 237.080 L 220.600 239.343 223.935 239.371 C 227.538 239.402,228.782 240.110,228.813 242.144 C 228.825 242.983,228.837 242.984,229.413 242.224 C 229.736 241.796,230.000 240.843,230.000 240.104 C 230.000 236.657,231.488 235.600,236.339 235.600 L 239.931 235.600 241.143 237.248 C 241.981 238.388,242.445 239.590,242.647 241.148 C 242.961 243.558,243.475 242.942,243.560 240.053 C 243.590 239.052,243.999 238.307,245.153 237.153 L 246.706 235.600 250.324 235.600 C 255.103 235.600,256.000 236.454,256.000 241.002 C 256.000 243.030,256.723 244.431,257.134 243.198 C 257.336 242.591,258.959 240.996,260.242 240.143 C 263.671 237.865,274.800 239.721,274.800 242.572 C 274.800 242.841,275.260 243.493,275.823 244.022 C 276.815 244.954,276.838 245.086,276.575 248.438 C 276.289 252.099,276.762 253.399,277.662 251.423 C 278.022 250.634,278.009 249.907,277.608 248.234 C 276.378 243.106,278.180 239.935,282.641 239.378 C 286.080 238.948,291.804 239.380,292.993 240.159 C 294.130 240.903,294.450 243.690,293.468 244.280 C 292.246 245.014,291.650 247.039,292.499 247.569 C 293.436 248.154,293.212 248.408,294.794 244.962 C 296.823 240.538,298.983 239.219,304.200 239.219 C 309.344 239.219,310.174 239.729,310.602 243.153 L 310.880 245.383 311.422 243.807 C 311.927 242.338,312.539 241.647,314.628 240.182 C 316.962 238.547,326.354 239.010,327.960 240.839 C 329.231 242.288,329.531 242.285,331.400 240.800 C 334.508 238.330,340.768 239.254,340.812 242.189 C 340.823 242.898,340.873 242.917,341.208 242.342 C 342.365 240.361,346.899 239.362,348.201 240.801 C 348.925 241.601,348.929 241.600,350.634 240.601 C 355.700 237.632,363.193 240.807,359.600 244.400 C 359.160 244.840,358.799 245.515,358.798 245.900 C 358.794 247.073,358.001 249.542,357.451 250.092 C 357.166 250.377,356.806 251.399,356.652 252.363 C 356.385 254.032,355.502 255.642,353.887 257.400 C 351.889 259.576,346.342 258.273,345.292 255.382 C 344.876 254.236,344.862 254.231,344.823 255.200 C 344.718 257.790,340.081 259.438,337.200 257.909 C 335.944 257.242,333.600 253.230,333.600 251.745 C 333.600 251.414,333.170 250.390,332.645 249.471 C 332.119 248.552,331.544 247.080,331.366 246.200 C 331.086 244.814,331.007 245.144,330.775 248.660 C 330.484 253.064,329.076 255.700,326.427 256.799 C 325.862 257.033,324.950 257.487,324.400 257.807 C 322.844 258.711,317.177 258.610,315.954 257.655 C 315.429 257.245,314.619 256.791,314.153 256.645 C 312.946 256.267,311.868 254.953,311.376 253.260 L 310.951 251.800 310.665 253.873 C 310.121 257.821,302.994 260.266,299.554 257.684 C 299.029 257.290,298.096 256.750,297.480 256.484 C 296.783 256.182,296.069 255.358,295.589 254.300 C 295.165 253.365,294.814 252.787,294.809 253.016 C 294.796 253.627,291.833 256.800,291.276 256.800 C 291.014 256.800,290.426 257.174,289.968 257.632 C 287.295 260.305,276.768 257.875,275.758 254.352 L 275.391 253.072 274.281 254.749 C 273.524 255.894,272.795 256.501,271.986 256.663 C 271.334 256.793,270.800 257.029,270.800 257.186 C 270.800 258.518,263.167 258.910,261.554 257.661 C 261.029 257.255,260.108 256.802,259.506 256.655 C 258.792 256.481,258.152 255.879,257.659 254.919 L 256.905 253.449 255.905 255.025 C 253.869 258.230,249.194 259.541,246.943 257.539 C 245.840 256.557,240.323 256.625,238.422 257.644 C 236.488 258.681,233.236 258.658,231.891 257.600 C 230.651 256.625,229.311 256.575,228.325 257.468 C 227.255 258.436,223.593 258.655,221.973 257.847 C 220.367 257.045,219.607 257.035,218.146 257.798 C 216.117 258.855,212.901 258.592,211.660 257.267 C 209.976 255.466,209.051 255.107,208.475 256.028 C 208.210 256.453,207.807 256.800,207.580 256.800 C 207.353 256.800,206.654 257.180,206.027 257.643 C 204.266 258.945,195.677 258.663,194.370 257.260 C 193.485 256.310,191.379 256.263,190.812 257.181 C 189.854 258.731,183.200 258.691,183.200 257.136 C 183.200 256.537,181.084 256.781,180.325 257.468 C 179.255 258.436,175.593 258.655,173.973 257.847 C 171.948 256.836,170.941 256.995,170.666 258.368 C 170.081 261.294,165.891 262.731,158.677 262.481 C 155.268 262.362,152.645 259.222,154.600 257.600 C 154.930 257.326,155.200 256.876,155.200 256.600 C 155.200 256.324,155.471 255.873,155.801 255.599 C 156.318 255.170,156.224 255.009,155.127 254.450 C 154.301 254.029,153.684 253.306,153.377 252.400 L 152.903 251.000 152.630 253.000 C 152.479 254.100,152.276 255.360,152.178 255.800 C 151.573 258.509,144.644 259.451,143.517 256.978 C 143.266 256.427,142.957 256.122,142.831 256.298 C 140.693 259.269,133.216 258.906,133.194 255.830 C 133.189 255.079,133.141 255.095,132.689 256.000 C 131.703 257.973,130.014 258.399,123.162 258.399 C 114.737 258.400,115.433 259.415,115.280 246.913 C 115.127 234.435,114.246 235.600,123.833 235.600 C 132.559 235.600,132.400 235.526,132.400 239.584 L 132.400 242.311 130.912 242.590 C 129.654 242.826,129.534 242.931,130.137 243.269 C 130.721 243.596,130.841 244.154,130.795 246.334 C 130.717 250.082,130.694 250.000,131.800 250.000 C 132.786 250.000,132.800 249.953,132.802 246.700 C 132.807 240.072,133.250 239.611,139.681 239.546 C 142.167 239.521,145.445 239.484,146.966 239.465 C 149.249 239.435,149.807 239.557,150.166 240.164 C 150.405 240.568,151.169 241.515,151.864 242.268 L 153.129 243.636 153.385 242.468 C 153.983 239.744,160.198 238.007,162.503 239.919 C 162.923 240.268,163.214 240.301,163.388 240.019 C 163.750 239.433,170.272 239.470,170.637 240.061 C 171.107 240.820,172.000 239.215,172.000 237.613 C 172.000 233.993,177.141 232.229,181.384 234.392 M48.284 235.920 C 49.480 236.680,50.000 239.172,50.000 244.144 C 50.000 249.613,49.994 249.600,52.604 249.600 C 53.340 249.600,54.205 249.862,54.525 250.182 C 55.218 250.875,55.600 249.557,55.600 246.472 C 55.600 242.721,58.924 239.711,63.489 239.328 C 70.253 238.761,74.708 240.542,74.848 243.869 C 74.884 244.729,75.006 244.535,75.357 243.057 C 76.046 240.159,76.967 239.600,81.057 239.600 C 83.553 239.600,84.480 239.743,84.637 240.152 C 84.805 240.591,85.153 240.619,86.325 240.291 C 91.610 238.809,96.400 239.640,96.400 242.038 C 96.400 242.651,96.580 243.264,96.800 243.400 C 97.020 243.536,97.200 243.406,97.200 243.112 C 97.200 242.092,100.002 239.893,101.728 239.559 C 105.625 238.804,111.724 239.340,112.589 240.513 C 112.815 240.819,113.405 241.285,113.900 241.549 C 115.327 242.309,115.259 247.808,113.814 248.466 C 111.975 249.304,111.881 252.466,113.682 252.937 C 114.720 253.209,115.103 255.255,114.214 255.780 C 113.822 256.011,112.848 256.647,112.050 257.193 C 110.215 258.450,103.334 258.866,101.600 257.825 C 101.050 257.495,100.102 257.021,99.494 256.771 C 97.067 255.776,95.600 252.578,95.600 248.282 C 95.600 244.329,95.087 242.844,94.655 245.547 C 94.520 246.390,94.074 247.512,93.663 248.040 C 93.252 248.568,92.785 249.720,92.626 250.600 C 92.466 251.480,92.009 252.560,91.611 253.000 C 91.212 253.440,90.769 254.357,90.625 255.038 C 90.225 256.931,88.291 258.142,85.368 258.329 L 82.936 258.485 81.402 256.349 C 80.558 255.175,79.689 253.491,79.470 252.607 C 79.250 251.723,78.761 250.597,78.381 250.103 C 78.001 249.610,77.569 248.562,77.422 247.774 C 77.065 245.874,76.000 246.622,76.000 248.773 C 76.000 249.584,75.736 250.596,75.413 251.024 C 75.090 251.451,74.820 252.205,74.813 252.700 C 74.800 253.617,71.966 256.800,71.163 256.800 C 70.923 256.800,70.269 257.160,69.709 257.600 C 68.427 258.609,62.813 258.745,61.200 257.807 C 60.650 257.487,59.701 257.020,59.091 256.770 C 58.480 256.520,57.737 255.849,57.438 255.279 L 56.895 254.243 55.690 255.564 C 55.027 256.290,54.196 257.226,53.842 257.642 C 53.276 258.310,52.615 258.400,48.250 258.400 C 39.198 258.400,39.600 258.939,39.600 246.789 L 39.600 237.938 40.769 236.769 C 41.960 235.578,46.873 235.023,48.284 235.920 M182.581 238.904 C 182.238 239.799,182.519 241.418,183.000 241.312 C 183.220 241.264,183.459 240.747,183.531 240.164 C 183.688 238.899,182.956 237.928,182.581 238.904 M125.505 243.083 C 126.002 243.179,126.722 243.175,127.105 243.075 C 127.487 242.975,127.080 242.896,126.200 242.901 C 125.320 242.905,125.007 242.987,125.505 243.083 M208.375 245.807 C 207.788 247.023,207.797 247.130,208.526 247.586 C 209.613 248.264,210.544 247.314,210.187 245.891 C 209.806 244.371,209.084 244.338,208.375 245.807 M64.928 248.800 C 64.928 250.230,65.001 250.815,65.089 250.100 C 65.178 249.385,65.178 248.215,65.089 247.500 C 65.001 246.785,64.928 247.370,64.928 248.800 M304.500 246.691 C 303.951 246.884,303.864 248.021,304.250 249.950 C 304.522 251.308,305.542 251.634,306.376 250.629 C 306.748 250.181,307.109 250.149,308.068 250.483 C 309.598 251.017,310.051 250.453,309.904 248.200 L 309.800 246.600 307.400 246.558 C 306.080 246.534,304.775 246.594,304.500 246.691 M320.928 248.800 C 320.928 250.230,321.001 250.815,321.089 250.100 C 321.178 249.385,321.178 248.215,321.089 247.500 C 321.001 246.785,320.928 247.370,320.928 248.800 " stroke="none" fill="#fbf3bb" fill-rule="evenodd"></path><path id="path2" d="M175.997 234.677 C 173.883 235.009,173.600 236.364,173.600 246.170 C 173.600 256.319,173.625 256.400,176.758 256.400 C 180.151 256.400,180.000 256.920,180.000 245.229 C 180.000 233.340,180.254 234.010,175.997 234.677 M185.630 234.742 C 184.127 235.176,183.631 237.134,184.788 238.070 C 187.021 239.879,191.007 238.170,189.953 235.856 C 189.688 235.275,189.185 234.798,188.836 234.795 C 188.486 234.792,187.840 234.716,187.400 234.626 C 186.960 234.536,186.163 234.588,185.630 234.742 M214.696 234.776 C 213.868 234.941,213.148 235.149,213.096 235.238 C 212.073 236.973,212.001 237.701,212.013 246.095 C 212.027 256.344,212.043 256.400,214.958 256.400 C 218.511 256.400,218.800 255.915,218.800 249.954 L 218.800 244.800 219.957 244.800 C 221.481 244.800,221.600 245.217,221.600 250.571 C 221.600 255.814,221.918 256.400,224.758 256.400 C 227.988 256.400,228.000 256.374,228.000 249.514 C 228.000 240.499,227.785 240.204,221.403 240.492 L 219.006 240.600 218.732 237.863 C 218.582 236.357,218.400 235.067,218.329 234.995 C 217.962 234.629,216.025 234.512,214.696 234.776 M118.000 236.695 C 117.450 236.797,116.868 237.088,116.706 237.340 C 116.354 237.892,116.295 254.862,116.643 255.767 C 117.025 256.762,129.165 256.702,130.313 255.700 C 132.790 253.539,130.900 251.328,127.029 251.858 C 124.662 252.182,123.896 251.619,124.469 249.975 C 124.852 248.876,125.015 248.800,126.975 248.800 C 129.232 248.800,130.000 248.044,130.000 245.824 C 130.000 244.671,129.350 244.400,126.581 244.400 C 124.886 244.400,124.343 244.241,124.027 243.650 C 123.332 242.351,124.776 241.446,127.011 241.781 C 130.456 242.297,132.856 237.962,129.774 236.790 C 128.762 236.405,119.942 236.334,118.000 236.695 M234.956 236.719 C 232.085 236.886,232.000 237.177,232.000 246.845 C 232.000 256.301,232.030 256.400,234.925 256.400 C 238.012 256.400,238.789 255.702,238.848 252.877 L 238.895 250.600 239.348 252.481 C 239.862 254.620,240.117 254.930,241.826 255.499 C 242.744 255.804,243.298 255.770,244.026 255.363 C 245.101 254.762,246.932 254.976,248.189 255.851 C 249.249 256.588,252.012 256.547,253.111 255.777 C 253.981 255.168,254.000 254.980,253.995 246.877 C 253.988 237.111,253.950 236.887,252.259 236.722 C 247.734 236.283,245.464 237.765,244.530 241.768 C 243.638 245.593,242.530 245.727,241.622 242.120 C 240.457 237.495,239.194 236.472,234.956 236.719 M41.900 238.005 L 40.800 239.108 40.800 247.144 L 40.800 255.179 41.980 255.790 C 42.854 256.241,44.461 256.400,48.166 256.400 C 53.676 256.400,54.007 256.248,53.995 253.726 C 53.982 251.141,53.682 250.800,51.415 250.800 C 48.192 250.800,48.001 250.419,47.995 243.969 C 47.987 236.666,48.034 236.788,45.253 236.851 C 43.365 236.895,42.822 237.081,41.900 238.005 M186.785 240.335 C 186.776 240.701,186.191 241.363,185.485 241.808 L 184.200 242.615 184.090 248.954 C 184.014 253.289,184.124 255.468,184.439 255.846 C 185.150 256.704,188.915 256.578,189.738 255.669 C 190.690 254.616,190.708 243.873,189.761 241.886 C 189.021 240.336,186.811 239.183,186.785 240.335 M61.800 240.673 C 60.608 241.004,58.000 243.182,58.000 243.846 C 58.000 244.165,57.752 244.520,57.449 244.636 C 57.097 244.772,56.802 245.833,56.629 247.587 C 56.350 250.415,56.591 251.356,58.316 254.171 C 60.392 257.561,69.164 257.539,72.462 254.136 L 73.800 252.756 73.800 248.198 L 73.800 243.640 72.200 242.143 L 70.600 240.647 66.600 240.549 C 64.400 240.495,62.240 240.550,61.800 240.673 M79.600 240.747 C 77.169 241.362,75.992 243.232,77.335 244.346 C 77.630 244.591,78.097 245.558,78.375 246.495 C 78.652 247.433,79.113 248.470,79.400 248.800 C 79.687 249.130,80.158 250.210,80.448 251.200 C 80.738 252.190,81.386 253.610,81.888 254.356 C 82.389 255.102,82.800 255.867,82.800 256.056 C 82.800 256.617,86.712 256.447,88.213 255.820 C 89.083 255.457,89.600 254.967,89.600 254.505 C 89.600 254.100,89.956 253.071,90.391 252.217 C 90.826 251.364,91.388 250.021,91.640 249.233 C 91.891 248.445,92.413 247.260,92.800 246.600 C 93.644 245.158,94.603 241.269,94.211 240.878 C 94.057 240.725,92.870 240.606,91.574 240.614 C 88.240 240.634,86.825 242.019,85.830 246.236 C 85.439 247.895,85.064 249.196,84.997 249.126 C 84.929 249.057,84.660 247.200,84.398 245.000 C 83.833 240.249,83.332 239.804,79.600 240.747 M101.900 240.665 C 101.295 240.769,100.800 241.017,100.800 241.216 C 100.800 241.416,100.260 241.859,99.600 242.200 C 98.940 242.541,98.400 243.005,98.400 243.230 C 98.400 243.455,98.040 244.384,97.600 245.294 C 95.973 248.661,97.506 254.458,100.305 255.524 C 104.311 257.050,108.539 257.176,111.108 255.848 C 112.231 255.267,112.373 255.026,112.149 254.087 C 111.710 252.247,111.374 252.078,108.602 252.301 C 106.577 252.463,105.797 252.359,104.966 251.814 C 103.414 250.797,104.385 250.064,107.528 249.881 C 109.876 249.744,110.173 249.615,111.721 248.067 C 116.414 243.374,110.802 239.144,101.900 240.665 M136.147 240.835 C 135.361 241.063,134.804 241.535,134.652 242.099 C 134.336 243.278,134.328 254.948,134.643 255.767 C 134.962 256.598,138.402 256.627,139.978 255.811 L 141.117 255.222 141.259 250.179 C 141.383 245.731,141.492 245.068,142.182 244.564 C 143.672 243.474,144.131 244.632,144.293 249.888 C 144.501 256.641,144.404 256.400,146.919 256.400 C 150.756 256.400,150.915 256.100,150.710 249.248 C 150.450 240.491,148.513 238.489,142.976 241.255 L 141.265 242.109 140.179 241.255 C 139.021 240.344,138.153 240.254,136.147 240.835 M155.801 241.300 C 154.116 242.754,153.528 246.962,154.427 251.151 C 154.950 253.589,155.822 254.000,160.472 254.000 C 164.067 254.000,164.938 254.673,163.181 256.095 C 162.403 256.726,161.730 256.842,159.486 256.733 C 156.760 256.601,156.740 256.607,156.224 257.821 C 154.315 262.310,167.099 262.449,169.418 257.964 C 169.870 257.090,170.000 255.054,170.000 248.827 L 170.000 240.815 168.995 240.563 C 167.584 240.209,164.559 240.726,163.984 241.420 C 163.325 242.213,162.704 242.148,161.893 241.200 C 160.874 240.010,157.227 240.070,155.801 241.300 M197.914 240.673 C 192.979 241.969,193.442 249.120,198.504 249.813 C 203.381 250.480,202.410 252.703,197.417 252.302 C 193.270 251.969,192.470 255.214,196.438 256.268 C 206.562 258.956,213.940 251.608,205.350 247.393 C 201.888 245.694,201.395 245.219,202.376 244.532 C 203.035 244.071,203.415 244.079,204.876 244.588 C 207.131 245.373,207.086 245.382,207.768 244.061 C 208.375 242.888,208.210 241.230,207.435 240.706 C 206.974 240.395,199.078 240.367,197.914 240.673 M262.100 240.661 C 261.605 240.768,261.200 241.005,261.200 241.188 C 261.200 241.371,260.614 241.867,259.897 242.290 C 255.839 244.684,256.922 254.426,261.415 255.931 C 269.882 258.768,276.841 253.420,274.552 245.834 C 273.138 241.147,268.593 239.259,262.100 240.661 M281.795 240.740 C 276.892 242.323,277.325 249.102,282.374 249.796 C 287.073 250.443,286.345 252.614,281.538 252.291 C 278.681 252.099,277.703 252.762,278.065 254.644 C 278.656 257.709,290.285 257.339,292.005 254.200 C 293.411 251.632,292.532 248.017,290.495 247.991 C 290.113 247.986,289.350 247.630,288.800 247.200 C 288.250 246.770,287.603 246.414,287.362 246.409 C 287.121 246.404,286.611 246.054,286.229 245.632 C 285.094 244.378,286.551 243.843,289.052 244.596 C 290.114 244.915,291.136 245.024,291.323 244.837 C 291.980 244.180,292.155 241.144,291.558 240.766 C 290.924 240.364,283.022 240.343,281.795 240.740 M300.800 240.728 C 296.552 242.653,295.165 246.007,296.179 251.905 C 296.896 256.077,303.356 258.202,308.007 255.796 C 310.734 254.386,309.002 251.882,305.586 252.296 C 302.254 252.700,300.573 247.929,303.312 245.840 C 304.433 244.985,304.954 244.826,305.861 245.065 C 308.662 245.804,310.384 243.184,308.400 241.200 C 307.580 240.380,302.293 240.052,300.800 240.728 M316.200 241.008 C 313.470 242.433,312.774 243.334,312.314 246.035 C 311.099 253.175,313.816 256.789,320.400 256.791 C 328.841 256.793,332.776 247.529,326.776 241.776 C 325.256 240.318,318.465 239.825,316.200 241.008 M335.400 240.579 C 335.180 240.662,334.536 240.831,333.969 240.955 C 331.981 241.390,331.644 245.518,333.426 247.600 C 333.709 247.930,334.159 249.100,334.426 250.200 C 334.694 251.300,335.128 252.470,335.390 252.800 C 335.653 253.130,336.093 253.968,336.367 254.662 C 337.507 257.547,343.970 256.903,344.013 253.900 C 344.054 250.975,345.766 251.618,346.539 254.849 C 346.806 255.967,347.961 256.400,350.676 256.400 C 353.180 256.400,354.707 254.712,355.673 250.877 C 355.933 249.845,356.459 248.460,356.844 247.800 C 358.174 245.514,358.709 241.618,357.788 240.926 C 355.416 239.143,350.844 241.531,349.988 245.000 C 349.170 248.315,348.489 248.127,348.428 244.568 C 348.365 240.902,342.047 241.106,341.982 244.776 C 341.919 248.330,340.962 248.257,340.075 244.631 C 339.597 242.674,339.153 241.019,339.088 240.955 C 338.871 240.738,335.805 240.425,335.400 240.579 M66.136 244.729 C 67.646 246.398,67.264 251.910,65.575 252.814 C 64.322 253.484,63.432 250.977,63.741 247.654 C 64.061 244.219,64.828 243.283,66.136 244.729 M105.920 244.480 C 106.635 245.195,106.500 246.985,105.675 247.733 C 105.115 248.239,104.841 248.281,104.475 247.915 C 103.549 246.989,104.103 244.000,105.200 244.000 C 105.332 244.000,105.656 244.216,105.920 244.480 M321.986 244.774 C 322.705 246.117,322.503 251.384,321.695 252.382 L 320.989 253.253 320.002 252.202 C 319.173 251.319,319.013 250.752,319.007 248.660 C 318.997 245.017,320.833 242.620,321.986 244.774 M163.595 246.924 C 163.586 250.315,163.352 250.788,161.950 250.259 C 159.903 249.486,159.950 245.305,162.011 244.778 C 163.446 244.412,163.601 244.622,163.595 246.924 M267.586 245.174 C 268.887 247.605,267.846 252.400,266.017 252.400 C 264.093 252.400,263.151 245.842,264.913 244.721 C 265.801 244.158,267.166 244.389,267.586 245.174 M247.082 253.300 C 246.987 253.795,246.909 253.390,246.909 252.400 C 246.909 251.410,246.987 251.005,247.082 251.500 C 247.178 251.995,247.178 252.805,247.082 253.300 " stroke="none" fill="#3c2643" fill-rule="evenodd"></path><path id="path3" d="M173.177 234.889 C 172.333 235.814,172.000 236.584,172.000 237.613 C 172.000 239.215,171.107 240.820,170.637 240.061 C 170.272 239.470,163.750 239.433,163.388 240.019 C 163.214 240.301,162.923 240.268,162.503 239.919 C 160.198 238.007,153.983 239.744,153.385 242.468 L 153.129 243.636 151.864 242.268 C 151.169 241.515,150.405 240.568,150.166 240.164 C 149.807 239.557,149.249 239.435,146.966 239.465 C 145.445 239.484,142.167 239.521,139.681 239.546 C 133.250 239.611,132.807 240.072,132.802 246.700 C 132.800 249.953,132.786 250.000,131.800 250.000 C 130.694 250.000,130.717 250.082,130.795 246.334 C 130.841 244.154,130.721 243.596,130.137 243.269 C 129.534 242.931,129.654 242.826,130.912 242.590 L 132.400 242.311 132.400 239.584 C 132.400 235.526,132.559 235.600,123.833 235.600 C 114.246 235.600,115.127 234.435,115.280 246.913 C 115.433 259.415,114.737 258.400,123.162 258.399 C 130.014 258.399,131.703 257.973,132.689 256.000 C 133.141 255.095,133.189 255.079,133.194 255.830 C 133.216 258.906,140.693 259.269,142.831 256.298 C 142.957 256.122,143.266 256.427,143.517 256.978 C 144.644 259.451,151.573 258.509,152.178 255.800 C 152.276 255.360,152.479 254.100,152.630 253.000 L 152.903 251.000 153.377 252.400 C 153.684 253.306,154.301 254.029,155.127 254.450 C 156.224 255.009,156.318 255.170,155.801 255.599 C 155.471 255.873,155.200 256.324,155.200 256.600 C 155.200 256.876,154.930 257.326,154.600 257.600 C 152.645 259.222,155.268 262.362,158.677 262.481 C 165.891 262.731,170.081 261.294,170.666 258.368 C 170.941 256.995,171.948 256.836,173.973 257.847 C 175.593 258.655,179.255 258.436,180.325 257.468 C 181.084 256.781,183.200 256.537,183.200 257.136 C 183.200 258.691,189.854 258.731,190.812 257.181 C 191.379 256.263,193.485 256.310,194.370 257.260 C 195.677 258.663,204.266 258.945,206.027 257.643 C 206.654 257.180,207.353 256.800,207.580 256.800 C 207.807 256.800,208.210 256.453,208.475 256.028 C 209.051 255.107,209.976 255.466,211.660 257.267 C 212.901 258.592,216.117 258.855,218.146 257.798 C 219.607 257.035,220.367 257.045,221.973 257.847 C 223.593 258.655,227.255 258.436,228.325 257.468 C 229.311 256.575,230.651 256.625,231.891 257.600 C 233.236 258.658,236.488 258.681,238.422 257.644 C 240.323 256.625,245.840 256.557,246.943 257.539 C 249.194 259.541,253.869 258.230,255.905 255.025 L 256.905 253.449 257.659 254.919 C 258.152 255.879,258.792 256.481,259.506 256.655 C 260.108 256.802,261.029 257.255,261.554 257.661 C 263.167 258.910,270.800 258.518,270.800 257.186 C 270.800 257.029,271.334 256.793,271.986 256.663 C 272.795 256.501,273.524 255.894,274.281 254.749 L 275.391 253.072 275.758 254.352 C 276.768 257.875,287.295 260.305,289.968 257.632 C 290.426 257.174,291.014 256.800,291.276 256.800 C 291.833 256.800,294.796 253.627,294.809 253.016 C 294.814 252.787,295.165 253.365,295.589 254.300 C 296.069 255.358,296.783 256.182,297.480 256.484 C 298.096 256.750,299.029 257.290,299.554 257.684 C 302.994 260.266,310.121 257.821,310.665 253.873 L 310.951 251.800 311.376 253.260 C 311.868 254.953,312.946 256.267,314.153 256.645 C 314.619 256.791,315.429 257.245,315.954 257.655 C 317.177 258.610,322.844 258.711,324.400 257.807 C 324.950 257.487,325.862 257.033,326.427 256.799 C 329.076 255.700,330.484 253.064,330.775 248.660 C 331.007 245.144,331.086 244.814,331.366 246.200 C 331.544 247.080,332.119 248.552,332.645 249.471 C 333.170 250.390,333.600 251.414,333.600 251.745 C 333.600 253.230,335.944 257.242,337.200 257.909 C 340.081 259.438,344.718 257.790,344.823 255.200 C 344.862 254.231,344.876 254.236,345.292 255.382 C 346.342 258.273,351.889 259.576,353.887 257.400 C 355.502 255.642,356.385 254.032,356.652 252.363 C 356.806 251.399,357.166 250.377,357.451 250.092 C 358.001 249.542,358.794 247.073,358.798 245.900 C 358.799 245.515,359.160 244.840,359.600 244.400 C 363.193 240.807,355.700 237.632,350.634 240.601 C 348.929 241.600,348.925 241.601,348.201 240.801 C 346.899 239.362,342.365 240.361,341.208 242.342 C 340.873 242.917,340.823 242.898,340.812 242.189 C 340.768 239.254,334.508 238.330,331.400 240.800 C 329.531 242.285,329.231 242.288,327.960 240.839 C 326.354 239.010,316.962 238.547,314.628 240.182 C 312.539 241.647,311.927 242.338,311.422 243.807 L 310.880 245.383 310.602 243.153 C 310.174 239.729,309.344 239.219,304.200 239.219 C 298.983 239.219,296.823 240.538,294.794 244.962 C 293.212 248.408,293.436 248.154,292.499 247.569 C 291.650 247.039,292.246 245.014,293.468 244.280 C 294.450 243.690,294.130 240.903,292.993 240.159 C 291.804 239.380,286.080 238.948,282.641 239.378 C 278.180 239.935,276.378 243.106,277.608 248.234 C 278.009 249.907,278.022 250.634,277.662 251.423 C 276.762 253.399,276.289 252.099,276.575 248.438 C 276.838 245.086,276.815 244.954,275.823 244.022 C 275.260 243.493,274.800 242.841,274.800 242.572 C 274.800 239.721,263.671 237.865,260.242 240.143 C 258.959 240.996,257.336 242.591,257.134 243.198 C 256.723 244.431,256.000 243.030,256.000 241.002 C 256.000 236.454,255.103 235.600,250.324 235.600 L 246.706 235.600 245.153 237.153 C 243.999 238.307,243.590 239.052,243.560 240.053 C 243.475 242.942,242.961 243.558,242.647 241.148 C 242.445 239.590,241.981 238.388,241.143 237.248 L 239.931 235.600 236.339 235.600 C 231.488 235.600,230.000 236.657,230.000 240.104 C 230.000 240.843,229.736 241.796,229.413 242.224 C 228.837 242.984,228.825 242.983,228.813 242.144 C 228.782 240.110,227.538 239.402,223.935 239.371 L 220.600 239.343 220.480 237.080 C 220.323 234.115,219.628 233.600,215.787 233.600 C 214.109 233.600,212.706 233.804,212.348 234.100 C 211.294 234.973,210.400 236.732,210.400 237.937 C 210.400 239.588,209.699 240.030,207.786 239.587 C 197.875 237.289,191.990 240.848,193.624 248.152 C 194.021 249.924,194.016 250.596,193.599 251.603 C 192.765 253.617,192.402 252.278,192.438 247.315 C 192.467 243.415,192.352 242.592,191.565 241.015 L 190.659 239.202 191.567 238.235 C 192.652 237.080,192.432 235.861,190.893 234.500 C 189.467 233.239,184.351 233.164,183.491 234.392 C 182.938 235.181,182.931 235.181,181.384 234.392 C 178.693 233.020,174.662 233.264,173.177 234.889 M180.100 234.557 C 180.838 235.117,181.202 254.779,180.494 255.840 C 179.275 257.665,175.179 257.702,173.200 255.906 L 171.800 254.635 171.670 249.158 C 171.571 244.956,171.688 243.249,172.170 241.826 C 172.517 240.806,172.800 239.331,172.800 238.548 C 172.800 235.029,177.405 232.511,180.100 234.557 M189.596 234.398 C 191.184 235.248,191.615 237.003,190.508 238.110 L 189.518 239.100 190.359 241.001 C 191.049 242.561,191.200 243.699,191.200 247.353 C 191.200 251.938,191.607 254.304,192.493 254.866 C 192.854 255.095,192.787 255.190,192.258 255.194 C 191.850 255.197,190.981 255.650,190.327 256.200 C 188.755 257.522,185.234 257.634,184.000 256.400 C 183.267 255.667,183.200 255.067,183.200 249.254 C 183.200 243.514,183.276 242.811,184.000 241.891 C 185.446 240.053,184.547 237.654,182.200 237.086 C 181.477 236.911,181.486 236.888,182.300 236.846 C 182.795 236.821,183.200 236.644,183.200 236.454 C 183.200 234.516,187.334 233.187,189.596 234.398 M218.880 234.720 C 219.118 234.958,219.400 236.060,219.507 237.169 C 219.759 239.799,220.247 240.146,223.543 240.039 C 226.642 239.938,227.611 240.486,228.355 242.760 C 228.846 244.260,228.962 255.140,228.494 255.840 C 227.438 257.422,223.211 257.726,221.723 256.328 L 220.794 255.455 218.689 256.328 C 212.094 259.061,211.200 257.833,211.201 246.046 C 211.203 234.424,211.444 233.888,216.524 234.178 C 217.581 234.238,218.642 234.482,218.880 234.720 M40.769 236.769 L 39.600 237.938 39.600 246.789 C 39.600 258.939,39.198 258.400,48.250 258.400 C 52.615 258.400,53.276 258.310,53.842 257.642 C 54.196 257.226,55.027 256.290,55.690 255.564 L 56.895 254.243 57.438 255.279 C 57.737 255.849,58.480 256.520,59.091 256.770 C 59.701 257.020,60.650 257.487,61.200 257.807 C 62.813 258.745,68.427 258.609,69.709 257.600 C 70.269 257.160,70.923 256.800,71.163 256.800 C 71.966 256.800,74.800 253.617,74.813 252.700 C 74.820 252.205,75.090 251.451,75.413 251.024 C 75.736 250.596,76.000 249.584,76.000 248.773 C 76.000 246.622,77.065 245.874,77.422 247.774 C 77.569 248.562,78.001 249.610,78.381 250.103 C 78.761 250.597,79.250 251.723,79.470 252.607 C 79.689 253.491,80.558 255.175,81.402 256.349 L 82.936 258.485 85.368 258.329 C 88.291 258.142,90.225 256.931,90.625 255.038 C 90.769 254.357,91.212 253.440,91.611 253.000 C 92.009 252.560,92.466 251.480,92.626 250.600 C 92.785 249.720,93.252 248.568,93.663 248.040 C 94.074 247.512,94.520 246.390,94.655 245.547 C 95.087 242.844,95.600 244.329,95.600 248.282 C 95.600 252.578,97.067 255.776,99.494 256.771 C 100.102 257.021,101.050 257.495,101.600 257.825 C 103.334 258.866,110.215 258.450,112.050 257.193 C 112.848 256.647,113.822 256.011,114.214 255.780 C 115.103 255.255,114.720 253.209,113.682 252.937 C 111.881 252.466,111.975 249.304,113.814 248.466 C 115.259 247.808,115.327 242.309,113.900 241.549 C 113.405 241.285,112.815 240.819,112.589 240.513 C 111.724 239.340,105.625 238.804,101.728 239.559 C 100.002 239.893,97.200 242.092,97.200 243.112 C 97.200 243.406,97.020 243.536,96.800 243.400 C 96.580 243.264,96.400 242.651,96.400 242.038 C 96.400 239.640,91.610 238.809,86.325 240.291 C 85.153 240.619,84.805 240.591,84.637 240.152 C 84.480 239.743,83.553 239.600,81.057 239.600 C 76.967 239.600,76.046 240.159,75.357 243.057 C 75.006 244.535,74.884 244.729,74.848 243.869 C 74.708 240.542,70.253 238.761,63.489 239.328 C 58.924 239.711,55.600 242.721,55.600 246.472 C 55.600 249.557,55.218 250.875,54.525 250.182 C 54.205 249.862,53.340 249.600,52.604 249.600 C 49.994 249.600,50.000 249.613,50.000 244.144 C 50.000 236.501,49.468 235.616,44.869 235.606 C 42.159 235.600,41.850 235.688,40.769 236.769 M47.824 236.567 C 48.524 237.078,48.613 237.742,48.728 243.345 L 48.856 249.556 50.254 250.018 C 51.023 250.272,51.993 250.391,52.408 250.282 C 54.528 249.728,55.679 253.987,53.988 256.129 L 53.097 257.257 47.408 257.129 C 43.332 257.036,41.533 256.844,41.060 256.451 C 40.259 255.785,40.056 239.390,40.831 237.941 C 41.741 236.242,46.183 235.369,47.824 236.567 M130.340 236.439 C 131.539 236.857,131.600 236.981,131.600 238.990 C 131.600 241.703,131.060 242.145,127.440 242.400 C 125.271 242.553,124.600 242.742,124.600 243.200 C 124.600 243.677,125.058 243.774,126.842 243.671 C 129.825 243.499,130.568 244.177,130.230 246.764 C 129.807 250.006,129.876 250.363,131.158 251.560 C 132.669 252.972,132.757 254.340,131.436 255.878 L 130.471 257.000 123.659 257.126 L 116.847 257.252 116.190 255.982 C 115.313 254.285,115.449 237.744,116.349 236.661 C 117.011 235.864,128.182 235.687,130.340 236.439 M239.181 236.390 C 240.194 236.932,241.395 239.089,242.172 241.764 C 242.963 244.485,243.411 244.354,244.028 241.222 C 244.867 236.953,250.663 234.172,253.800 236.532 C 255.073 237.490,255.264 255.056,254.014 256.187 C 252.843 257.247,249.319 257.484,247.507 256.624 C 246.735 256.258,245.765 255.986,245.352 256.019 C 244.938 256.053,243.412 256.059,241.959 256.033 C 240.297 256.004,238.889 256.210,238.159 256.591 C 236.422 257.496,232.990 257.390,232.000 256.400 C 231.049 255.449,230.760 239.803,231.658 237.833 C 232.389 236.228,237.167 235.312,239.181 236.390 M183.531 240.164 C 183.459 240.747,183.220 241.264,183.000 241.312 C 182.519 241.418,182.238 239.799,182.581 238.904 C 182.956 237.928,183.688 238.899,183.531 240.164 M71.200 240.618 C 75.376 242.732,76.229 250.920,72.667 254.701 C 68.898 258.701,61.284 258.408,57.339 254.112 L 55.670 252.293 55.870 249.247 C 56.226 243.837,58.801 240.455,62.926 239.977 C 65.685 239.658,69.958 239.989,71.200 240.618 M110.014 240.183 C 113.709 240.760,115.393 245.472,112.838 248.086 C 112.162 248.778,111.508 249.658,111.386 250.044 C 111.212 250.593,110.871 250.696,109.804 250.523 C 109.056 250.402,107.579 250.439,106.522 250.605 L 104.600 250.908 105.800 251.410 C 106.614 251.750,107.644 251.811,109.000 251.599 C 111.297 251.239,111.725 251.469,112.764 253.619 C 113.877 255.924,111.316 257.512,106.394 257.570 C 99.847 257.646,96.400 254.573,96.400 248.660 C 96.400 241.605,100.955 238.769,110.014 240.183 M162.283 240.693 C 163.058 241.199,163.276 241.192,164.072 240.635 C 165.207 239.839,169.107 239.803,170.130 240.579 C 171.276 241.447,170.991 257.021,169.800 258.612 C 168.039 260.963,165.812 261.795,161.267 261.797 L 157.134 261.800 155.975 260.502 C 153.892 258.171,155.747 255.411,159.199 255.705 C 161.766 255.924,163.960 255.335,162.600 254.793 C 162.160 254.618,160.810 254.563,159.600 254.672 C 155.177 255.070,153.783 253.675,153.331 248.400 C 152.747 241.587,157.450 237.538,162.283 240.693 M207.938 240.374 C 208.595 240.741,209.674 243.092,209.271 243.276 C 208.384 243.681,206.471 247.200,206.980 247.489 C 209.998 249.200,211.404 252.442,209.663 253.677 C 209.258 253.965,208.727 254.577,208.483 255.037 C 206.468 258.836,192.591 258.145,193.363 254.284 C 193.853 251.835,194.517 251.290,196.751 251.505 C 199.255 251.746,201.440 251.288,200.200 250.782 C 199.760 250.603,198.641 250.444,197.714 250.428 C 195.364 250.389,194.000 248.450,194.000 245.149 C 194.000 240.990,196.910 239.448,203.985 239.859 C 205.847 239.967,207.626 240.199,207.938 240.374 M269.486 239.995 C 275.348 240.014,277.837 250.967,272.957 255.267 C 268.814 258.917,259.718 257.896,257.798 253.566 C 257.368 252.595,256.769 251.609,256.467 251.376 C 255.257 250.439,255.401 247.387,256.750 245.350 C 257.438 244.312,258.000 243.329,258.000 243.165 C 258.000 241.534,264.058 239.297,267.000 239.841 C 267.440 239.923,268.559 239.992,269.486 239.995 M292.028 240.415 C 293.577 241.244,292.523 245.620,290.501 246.751 C 289.961 247.054,289.993 247.144,290.724 247.376 C 291.195 247.525,291.954 248.124,292.413 248.707 C 293.598 250.213,294.245 249.614,295.526 245.826 C 297.069 241.265,298.914 240.000,304.025 240.000 C 308.217 240.000,309.428 240.440,309.757 242.085 C 310.289 244.743,308.651 246.382,306.038 245.808 C 304.182 245.401,302.622 247.091,302.980 249.122 C 303.301 250.941,304.571 252.135,305.756 251.730 C 307.946 250.981,310.000 252.079,310.000 254.000 C 310.000 257.259,303.698 258.710,299.200 256.487 C 297.039 255.419,296.413 254.640,295.306 251.635 C 294.967 250.714,294.893 250.770,293.724 252.835 C 291.675 256.454,289.495 257.600,284.663 257.600 C 278.800 257.600,276.281 255.998,277.705 253.174 L 278.600 251.400 281.080 251.536 C 283.748 251.682,285.119 251.286,283.773 250.759 C 283.348 250.593,282.229 250.444,281.287 250.428 C 280.034 250.408,279.508 250.212,279.327 249.700 C 279.190 249.315,278.821 248.700,278.507 248.333 C 276.243 245.690,278.813 240.537,282.687 239.950 C 284.976 239.603,291.079 239.907,292.028 240.415 M326.700 240.882 C 327.415 241.313,328.000 241.812,328.000 241.991 C 328.000 242.170,328.447 242.740,328.993 243.258 C 330.561 244.745,330.487 250.678,328.868 253.222 C 324.564 259.986,313.123 258.738,311.587 251.336 C 310.281 245.048,312.994 240.505,318.366 239.983 C 321.852 239.643,325.252 240.010,326.700 240.882 M84.069 240.662 C 84.471 241.026,84.800 241.761,84.800 242.296 L 84.800 243.267 86.300 242.091 C 88.583 240.302,89.362 240.000,91.697 240.000 C 95.905 240.000,95.967 240.829,92.383 249.200 C 91.677 250.850,90.786 253.010,90.404 254.000 C 89.547 256.221,87.878 257.198,84.942 257.199 C 82.670 257.200,81.191 255.596,79.992 251.833 C 79.718 250.970,79.176 249.710,78.788 249.033 C 78.400 248.355,77.948 247.353,77.785 246.808 C 77.621 246.262,77.130 245.331,76.692 244.740 C 74.425 241.673,81.105 237.980,84.069 240.662 M140.207 240.556 C 140.854 241.029,141.237 241.030,142.784 240.560 C 146.444 239.449,150.400 240.077,150.400 241.769 C 150.400 242.014,150.826 242.841,151.346 243.607 C 152.718 245.626,152.902 247.061,152.213 250.339 C 151.876 251.942,151.600 253.753,151.600 254.364 C 151.600 256.101,150.333 256.941,147.430 257.126 C 143.921 257.349,143.613 256.863,143.560 251.011 C 143.490 243.236,142.794 242.705,142.443 250.159 C 142.151 256.366,141.806 256.847,137.449 257.125 C 133.743 257.361,133.600 257.071,133.600 249.298 C 133.600 242.492,134.035 240.597,135.666 240.287 C 137.633 239.912,139.477 240.022,140.207 240.556 M339.149 240.700 C 339.610 241.085,340.234 242.381,340.534 243.580 L 341.081 245.760 341.348 244.335 C 341.878 241.510,346.122 240.047,348.179 241.981 L 349.122 242.867 351.206 241.433 C 354.493 239.172,358.921 239.518,359.295 242.064 C 359.389 242.708,359.341 243.313,359.188 243.407 C 359.035 243.502,358.681 244.439,358.401 245.490 C 358.121 246.540,357.663 247.774,357.382 248.231 C 357.101 248.688,356.604 249.965,356.276 251.068 C 354.612 256.673,352.864 257.913,348.001 256.940 C 346.925 256.725,346.555 256.347,345.845 254.739 L 344.989 252.798 344.296 254.749 C 343.456 257.112,340.554 257.999,337.483 256.832 C 336.588 256.491,334.000 252.018,334.000 250.812 C 334.000 250.571,333.550 249.485,333.000 248.400 C 332.450 247.315,332.000 246.142,332.000 245.793 C 332.000 245.445,331.739 244.656,331.421 244.040 C 330.770 242.781,332.118 240.645,333.800 240.271 C 335.815 239.823,338.342 240.025,339.149 240.700 M127.105 243.075 C 126.722 243.175,126.002 243.179,125.505 243.083 C 125.007 242.987,125.320 242.905,126.200 242.901 C 127.080 242.896,127.487 242.975,127.105 243.075 M104.800 246.000 C 104.800 246.996,104.958 247.550,105.200 247.400 C 105.420 247.264,105.600 246.634,105.600 246.000 C 105.600 245.366,105.420 244.736,105.200 244.600 C 104.958 244.450,104.800 245.004,104.800 246.000 M210.187 245.891 C 210.544 247.314,209.613 248.264,208.526 247.586 C 207.797 247.130,207.788 247.023,208.375 245.807 C 209.084 244.338,209.806 244.371,210.187 245.891 M64.643 245.433 C 64.509 245.781,64.400 247.116,64.400 248.400 C 64.400 252.045,65.126 253.134,65.961 250.740 C 66.911 248.013,65.631 242.857,64.643 245.433 M320.252 245.700 C 319.540 248.358,320.542 253.892,321.353 251.779 C 321.876 250.416,321.629 244.800,321.047 244.800 C 320.742 244.800,320.385 245.205,320.252 245.700 M65.089 250.100 C 65.001 250.815,64.928 250.230,64.928 248.800 C 64.928 247.370,65.001 246.785,65.089 247.500 C 65.178 248.215,65.178 249.385,65.089 250.100 M265.606 246.788 C 264.848 247.267,264.881 250.352,265.650 250.839 C 266.896 251.629,267.200 251.230,267.200 248.800 C 267.200 246.349,266.900 245.970,265.606 246.788 M309.904 248.200 C 310.051 250.453,309.598 251.017,308.068 250.483 C 307.109 250.149,306.748 250.181,306.376 250.629 C 305.135 252.124,304.000 250.763,304.000 247.783 C 304.000 246.646,304.392 246.505,307.400 246.558 L 309.800 246.600 309.904 248.200 M321.089 250.100 C 321.001 250.815,320.928 250.230,320.928 248.800 C 320.928 247.370,321.001 246.785,321.089 247.500 C 321.178 248.215,321.178 249.385,321.089 250.100 " stroke="none" fill="#a59582" fill-rule="evenodd"></path><path id="path4" d="M192.400 87.838 C 189.210 88.135,185.520 88.727,184.200 89.152 C 182.880 89.577,181.088 90.047,180.219 90.196 C 179.349 90.345,177.999 90.790,177.219 91.185 C 176.438 91.579,175.247 92.022,174.572 92.167 C 171.869 92.750,161.763 98.353,157.963 101.375 C 157.392 101.829,156.222 102.740,155.363 103.400 C 151.347 106.483,144.535 113.729,142.130 117.474 C 141.732 118.093,141.262 118.780,141.086 119.000 C 139.410 121.093,134.929 129.555,134.202 132.000 C 134.039 132.550,133.567 133.754,133.153 134.676 C 132.740 135.598,132.200 137.308,131.954 138.476 C 131.708 139.644,131.355 140.789,131.170 141.021 C 130.533 141.817,128.803 154.690,128.792 158.712 C 128.783 162.073,129.763 170.374,130.621 174.200 C 131.684 178.939,132.862 182.953,133.426 183.758 C 133.742 184.209,134.000 184.839,134.000 185.157 C 134.000 185.714,136.046 190.360,136.837 191.600 C 137.048 191.930,137.585 192.920,138.031 193.800 C 138.794 195.305,139.969 197.196,141.788 199.850 C 147.689 208.456,158.195 217.835,166.600 221.997 C 167.480 222.433,168.470 222.961,168.800 223.171 C 169.913 223.877,174.185 225.672,176.200 226.279 C 177.300 226.610,178.380 227.027,178.600 227.206 C 178.820 227.384,180.125 227.733,181.499 227.982 C 182.874 228.231,184.746 228.699,185.659 229.021 C 190.470 230.718,210.157 230.798,215.178 229.141 C 215.949 228.887,217.934 228.362,219.590 227.975 C 226.367 226.391,236.042 221.771,242.573 217.000 C 251.318 210.611,258.766 202.203,263.300 193.600 C 264.170 191.950,264.995 190.420,265.135 190.200 C 266.288 188.382,269.090 180.543,269.994 176.600 C 272.132 167.288,272.069 167.909,271.903 157.600 C 271.734 147.105,271.499 145.501,268.904 137.200 C 267.533 132.814,264.406 125.677,262.771 123.200 C 262.407 122.650,260.886 120.310,259.391 118.000 C 252.760 107.761,238.780 96.631,227.205 92.376 C 225.992 91.930,224.460 91.318,223.800 91.016 C 223.140 90.714,221.880 90.346,221.000 90.199 C 220.120 90.051,218.404 89.600,217.188 89.196 C 212.344 87.588,201.469 86.992,192.400 87.838 M208.400 92.005 C 210.930 92.224,214.170 92.749,215.600 93.173 C 217.030 93.597,218.920 94.071,219.800 94.226 C 220.680 94.381,222.068 94.844,222.884 95.254 C 223.700 95.664,224.586 96.000,224.852 96.000 C 225.342 96.000,229.757 97.965,231.600 99.003 C 232.150 99.313,233.275 99.864,234.100 100.227 C 234.925 100.590,235.600 101.035,235.600 101.216 C 235.600 101.398,235.944 101.655,236.365 101.789 C 236.786 101.922,237.769 102.520,238.551 103.116 C 239.333 103.712,240.834 104.819,241.886 105.574 C 244.946 107.772,253.235 116.334,255.408 119.541 C 258.613 124.272,258.757 124.504,259.802 126.600 C 260.350 127.700,260.968 128.870,261.175 129.200 C 261.875 130.316,263.670 134.589,264.200 136.400 C 264.489 137.390,265.002 139.010,265.340 140.000 C 268.075 148.028,268.820 163.325,266.888 171.800 C 265.909 176.097,263.775 183.169,262.965 184.800 C 262.692 185.350,261.724 187.330,260.814 189.200 C 255.534 200.054,247.067 209.378,236.435 216.050 C 234.281 217.402,229.613 220.000,229.339 220.000 C 229.181 220.000,228.321 220.348,227.426 220.774 C 225.392 221.741,221.505 223.159,219.400 223.701 C 218.520 223.927,216.450 224.462,214.800 224.890 C 210.450 226.016,202.013 226.516,195.139 226.054 C 190.042 225.712,188.061 225.361,181.800 223.684 C 173.481 221.457,163.986 216.330,156.832 210.200 C 152.390 206.394,145.872 198.975,143.830 195.400 C 143.453 194.740,142.720 193.480,142.201 192.600 C 139.156 187.437,137.682 183.876,135.247 175.800 C 132.784 167.630,132.755 149.797,135.193 142.409 C 135.594 141.194,136.129 139.316,136.383 138.237 C 136.636 137.157,137.104 135.902,137.422 135.448 C 137.740 134.994,138.000 134.328,138.000 133.969 C 138.000 133.286,142.224 124.816,143.518 122.904 C 143.928 122.297,144.700 121.148,145.232 120.350 C 149.220 114.375,158.348 105.632,164.400 101.989 C 165.170 101.526,166.520 100.710,167.400 100.176 C 168.280 99.642,169.630 98.931,170.400 98.596 C 171.170 98.260,172.520 97.629,173.400 97.193 C 175.782 96.013,179.082 94.902,185.224 93.212 C 190.477 91.767,199.949 91.274,208.400 92.005 " stroke="none" fill="#ecf7fa" fill-rule="evenodd"></path><path id="path5" d="M175.183 234.437 C 173.861 234.924,172.800 236.753,172.800 238.548 C 172.800 239.331,172.517 240.806,172.170 241.826 C 171.688 243.249,171.571 244.956,171.670 249.158 L 171.800 254.635 173.200 255.906 C 175.179 257.702,179.275 257.665,180.494 255.840 C 181.202 254.779,180.838 235.117,180.100 234.557 C 179.299 233.949,176.684 233.885,175.183 234.437 M184.029 235.054 C 183.573 235.634,183.200 236.264,183.200 236.454 C 183.200 236.644,182.795 236.821,182.300 236.846 C 181.486 236.888,181.477 236.911,182.200 237.086 C 184.547 237.654,185.446 240.053,184.000 241.891 C 183.276 242.811,183.200 243.514,183.200 249.254 C 183.200 255.067,183.267 255.667,184.000 256.400 C 185.234 257.634,188.755 257.522,190.327 256.200 C 190.981 255.650,191.850 255.197,192.258 255.194 C 192.787 255.190,192.854 255.095,192.493 254.866 C 191.607 254.304,191.200 251.938,191.200 247.353 C 191.200 243.699,191.049 242.561,190.359 241.001 L 189.518 239.100 190.508 238.110 C 191.436 237.182,191.462 237.046,190.919 235.958 C 189.771 233.656,185.563 233.104,184.029 235.054 M213.675 234.265 C 211.506 234.727,211.203 236.168,211.201 246.046 C 211.200 257.833,212.094 259.061,218.689 256.328 L 220.794 255.455 221.723 256.328 C 223.211 257.726,227.438 257.422,228.494 255.840 C 228.962 255.140,228.846 244.260,228.355 242.760 C 227.611 240.486,226.642 239.938,223.543 240.039 C 220.247 240.146,219.759 239.799,219.507 237.169 C 219.239 234.383,217.406 233.470,213.675 234.265 M179.367 234.643 C 179.922 234.856,180.000 236.166,180.000 245.229 C 180.000 256.920,180.151 256.400,176.758 256.400 C 173.625 256.400,173.600 256.319,173.600 246.170 C 173.600 235.078,173.721 234.746,177.867 234.460 C 178.344 234.427,179.019 234.509,179.367 234.643 M188.836 234.795 C 189.185 234.798,189.688 235.275,189.953 235.856 C 191.007 238.170,187.021 239.879,184.788 238.070 C 183.019 236.639,184.929 234.121,187.400 234.626 C 187.840 234.716,188.486 234.792,188.836 234.795 M218.329 234.995 C 218.400 235.067,218.582 236.357,218.732 237.863 L 219.006 240.600 221.403 240.492 C 227.785 240.204,228.000 240.499,228.000 249.514 C 228.000 256.374,227.988 256.400,224.758 256.400 C 221.918 256.400,221.600 255.814,221.600 250.571 C 221.600 245.217,221.481 244.800,219.957 244.800 L 218.800 244.800 218.800 249.954 C 218.800 255.915,218.511 256.400,214.958 256.400 C 212.043 256.400,212.027 256.344,212.013 246.095 C 212.001 237.701,212.073 236.973,213.096 235.238 C 213.446 234.643,217.776 234.442,218.329 234.995 M42.531 236.583 C 40.511 237.462,40.400 238.020,40.400 247.325 C 40.400 257.823,39.780 256.956,47.408 257.129 L 53.097 257.257 53.988 256.129 C 55.679 253.987,54.528 249.728,52.408 250.282 C 51.993 250.391,51.023 250.272,50.254 250.018 L 48.856 249.556 48.728 243.345 C 48.572 235.789,47.371 234.478,42.531 236.583 M116.349 236.661 C 115.449 237.744,115.313 254.285,116.190 255.982 L 116.847 257.252 123.659 257.126 L 130.471 257.000 131.436 255.878 C 132.757 254.340,132.669 252.972,131.158 251.560 C 129.876 250.363,129.807 250.006,130.230 246.764 C 130.568 244.177,129.825 243.499,126.842 243.671 C 125.058 243.774,124.600 243.677,124.600 243.200 C 124.600 242.742,125.271 242.553,127.440 242.400 C 131.060 242.145,131.600 241.703,131.600 238.990 C 131.600 236.981,131.539 236.857,130.340 236.439 C 128.182 235.687,117.011 235.864,116.349 236.661 M233.158 236.446 C 231.401 237.091,231.200 238.195,231.200 247.219 C 231.200 255.067,231.251 255.651,232.000 256.400 C 232.990 257.390,236.422 257.496,238.159 256.591 C 238.889 256.210,240.297 256.004,241.959 256.033 C 243.412 256.059,244.938 256.053,245.352 256.019 C 245.765 255.986,246.735 256.258,247.507 256.624 C 249.319 257.484,252.843 257.247,254.014 256.187 C 255.264 255.056,255.073 237.490,253.800 236.532 C 250.663 234.172,244.867 236.953,244.028 241.222 C 243.411 244.354,242.963 244.485,242.172 241.764 C 240.619 236.420,237.784 234.748,233.158 236.446 M129.774 236.790 C 132.856 237.962,130.456 242.297,127.011 241.781 C 124.776 241.446,123.332 242.351,124.027 243.650 C 124.343 244.241,124.886 244.400,126.581 244.400 C 129.350 244.400,130.000 244.671,130.000 245.824 C 130.000 248.044,129.232 248.800,126.975 248.800 C 125.015 248.800,124.852 248.876,124.469 249.975 C 123.896 251.619,124.662 252.182,127.029 251.858 C 130.900 251.328,132.790 253.539,130.313 255.700 C 129.165 256.702,117.025 256.762,116.643 255.767 C 116.295 254.862,116.354 237.892,116.706 237.340 C 117.277 236.447,127.716 236.008,129.774 236.790 M240.165 238.576 C 240.709 239.505,241.365 241.100,241.622 242.120 C 242.530 245.727,243.638 245.593,244.530 241.768 C 245.464 237.765,247.734 236.283,252.259 236.722 C 253.950 236.887,253.988 237.111,253.995 246.877 C 254.000 254.980,253.981 255.168,253.111 255.777 C 252.012 256.547,249.249 256.588,248.189 255.851 C 246.932 254.976,245.101 254.762,244.026 255.363 C 243.298 255.770,242.744 255.804,241.826 255.499 C 240.117 254.930,239.862 254.620,239.348 252.481 L 238.895 250.600 238.848 252.877 C 238.789 255.702,238.012 256.400,234.925 256.400 C 232.030 256.400,232.000 256.301,232.000 246.845 C 232.000 237.177,232.085 236.886,234.956 236.719 C 238.487 236.513,239.080 236.725,240.165 238.576 M47.748 237.700 C 47.881 238.195,47.992 241.016,47.995 243.969 C 48.001 250.419,48.192 250.800,51.415 250.800 C 53.682 250.800,53.982 251.141,53.995 253.726 C 54.007 256.248,53.676 256.400,48.166 256.400 C 44.461 256.400,42.854 256.241,41.980 255.790 L 40.800 255.179 40.800 247.144 L 40.800 239.108 41.900 238.005 C 43.429 236.473,47.364 236.268,47.748 237.700 M62.926 239.977 C 58.801 240.455,56.226 243.837,55.870 249.247 L 55.670 252.293 57.339 254.112 C 63.642 260.977,74.807 257.350,74.798 248.440 C 74.791 241.465,71.340 239.004,62.926 239.977 M103.800 239.962 C 94.883 240.845,93.233 253.742,101.643 256.816 C 107.249 258.865,114.316 256.833,112.764 253.619 C 111.725 251.469,111.297 251.239,109.000 251.599 C 107.644 251.811,106.614 251.750,105.800 251.410 L 104.600 250.908 106.522 250.605 C 107.579 250.439,109.056 250.402,109.804 250.523 C 110.871 250.696,111.212 250.593,111.386 250.044 C 111.508 249.658,112.162 248.778,112.838 248.086 C 113.844 247.057,114.067 246.501,114.067 245.015 C 114.067 241.075,110.466 239.302,103.800 239.962 M157.423 240.038 C 154.462 240.528,152.925 243.668,153.331 248.400 C 153.783 253.675,155.177 255.070,159.600 254.672 C 160.810 254.563,162.160 254.618,162.600 254.793 C 163.960 255.335,161.766 255.924,159.199 255.705 C 155.747 255.411,153.892 258.171,155.975 260.502 L 157.134 261.800 161.267 261.797 C 165.812 261.795,168.039 260.963,169.800 258.612 C 170.991 257.021,171.276 241.447,170.130 240.579 C 169.107 239.803,165.207 239.839,164.072 240.635 C 163.276 241.192,163.058 241.199,162.283 240.693 C 161.139 239.947,159.396 239.712,157.423 240.038 M189.761 241.886 C 190.708 243.873,190.690 254.616,189.738 255.669 C 188.915 256.578,185.150 256.704,184.439 255.846 C 184.124 255.468,184.014 253.289,184.090 248.954 L 184.200 242.615 185.485 241.808 C 186.191 241.363,186.776 240.701,186.785 240.335 C 186.811 239.183,189.021 240.336,189.761 241.886 M199.600 239.843 C 197.208 240.276,196.740 240.477,195.407 241.647 C 192.442 244.251,194.049 250.367,197.714 250.428 C 198.641 250.444,199.760 250.603,200.200 250.782 C 201.440 251.288,199.255 251.746,196.751 251.505 C 194.517 251.290,193.853 251.835,193.363 254.284 C 192.591 258.145,206.468 258.836,208.483 255.037 C 208.727 254.577,209.258 253.965,209.663 253.677 C 211.404 252.442,209.998 249.200,206.980 247.489 C 206.471 247.200,208.384 243.681,209.271 243.276 C 209.674 243.092,208.595 240.741,207.938 240.374 C 207.250 239.988,200.997 239.590,199.600 239.843 M263.739 239.982 C 261.426 240.254,258.000 242.154,258.000 243.165 C 258.000 243.329,257.438 244.312,256.750 245.350 C 255.401 247.387,255.257 250.439,256.467 251.376 C 256.769 251.609,257.368 252.595,257.798 253.566 C 259.718 257.896,268.814 258.917,272.957 255.267 C 277.837 250.967,275.348 240.014,269.486 239.995 C 268.559 239.992,267.440 239.923,267.000 239.841 C 266.560 239.760,265.093 239.823,263.739 239.982 M282.687 239.950 C 278.813 240.537,276.243 245.690,278.507 248.333 C 278.821 248.700,279.190 249.315,279.327 249.700 C 279.508 250.212,280.034 250.408,281.287 250.428 C 282.229 250.444,283.348 250.593,283.773 250.759 C 285.119 251.286,283.748 251.682,281.080 251.536 L 278.600 251.400 277.705 253.174 C 276.281 255.998,278.800 257.600,284.663 257.600 C 289.495 257.600,291.675 256.454,293.724 252.835 C 294.893 250.770,294.967 250.714,295.306 251.635 C 296.413 254.640,297.039 255.419,299.200 256.487 C 303.698 258.710,310.000 257.259,310.000 254.000 C 310.000 252.079,307.946 250.981,305.756 251.730 C 304.571 252.135,303.301 250.941,302.980 249.122 C 302.622 247.091,304.182 245.401,306.038 245.808 C 308.651 246.382,310.289 244.743,309.757 242.085 C 309.428 240.440,308.217 240.000,304.025 240.000 C 298.914 240.000,297.069 241.265,295.526 245.826 C 294.245 249.614,293.598 250.213,292.413 248.707 C 291.954 248.124,291.195 247.525,290.724 247.376 C 289.993 247.144,289.961 247.054,290.501 246.751 C 292.523 245.620,293.577 241.244,292.028 240.415 C 291.079 239.907,284.976 239.603,282.687 239.950 M318.366 239.983 C 312.994 240.505,310.281 245.048,311.587 251.336 C 313.123 258.738,324.564 259.986,328.868 253.222 C 330.487 250.678,330.561 244.745,328.993 243.258 C 328.447 242.740,328.000 242.170,328.000 241.991 C 328.000 240.574,322.998 239.532,318.366 239.983 M77.711 240.789 C 76.028 241.815,75.640 243.317,76.692 244.740 C 77.130 245.331,77.621 246.262,77.785 246.808 C 77.948 247.353,78.400 248.355,78.788 249.033 C 79.176 249.710,79.718 250.970,79.992 251.833 C 81.191 255.596,82.670 257.200,84.942 257.199 C 87.878 257.198,89.547 256.221,90.404 254.000 C 90.786 253.010,91.677 250.850,92.383 249.200 C 95.967 240.829,95.905 240.000,91.697 240.000 C 89.362 240.000,88.583 240.302,86.300 242.091 L 84.800 243.267 84.800 242.296 C 84.800 240.008,80.493 239.093,77.711 240.789 M135.666 240.287 C 134.035 240.597,133.600 242.492,133.600 249.298 C 133.600 257.071,133.743 257.361,137.449 257.125 C 141.806 256.847,142.151 256.366,142.443 250.159 C 142.794 242.705,143.490 243.236,143.560 251.011 C 143.613 256.863,143.921 257.349,147.430 257.126 C 150.333 256.941,151.600 256.101,151.600 254.364 C 151.600 253.753,151.876 251.942,152.213 250.339 C 152.902 247.061,152.718 245.626,151.346 243.607 C 150.826 242.841,150.400 242.014,150.400 241.769 C 150.400 240.077,146.444 239.449,142.784 240.560 C 141.237 241.030,140.854 241.029,140.207 240.556 C 139.477 240.022,137.633 239.912,135.666 240.287 M333.800 240.271 C 332.118 240.645,330.770 242.781,331.421 244.040 C 331.739 244.656,332.000 245.445,332.000 245.793 C 332.000 246.142,332.450 247.315,333.000 248.400 C 333.550 249.485,334.000 250.571,334.000 250.812 C 334.000 252.018,336.588 256.491,337.483 256.832 C 340.554 257.999,343.456 257.112,344.296 254.749 L 344.989 252.798 345.845 254.739 C 346.555 256.347,346.925 256.725,348.001 256.940 C 352.864 257.913,354.612 256.673,356.276 251.068 C 356.604 249.965,357.101 248.688,357.382 248.231 C 357.663 247.774,358.121 246.540,358.401 245.490 C 358.681 244.439,359.035 243.502,359.188 243.407 C 359.341 243.313,359.389 242.708,359.295 242.064 C 358.921 239.518,354.493 239.172,351.206 241.433 L 349.122 242.867 348.179 241.981 C 346.122 240.047,341.878 241.510,341.348 244.335 L 341.081 245.760 340.534 243.580 C 339.713 240.305,337.823 239.376,333.800 240.271 M72.200 242.143 L 73.800 243.640 73.800 248.198 L 73.800 252.756 72.462 254.136 C 69.164 257.539,60.392 257.561,58.316 254.171 C 56.591 251.356,56.350 250.415,56.629 247.587 C 56.802 245.833,57.097 244.772,57.449 244.636 C 57.752 244.520,58.000 244.165,58.000 243.846 C 58.000 241.791,61.562 240.425,66.600 240.549 L 70.600 240.647 72.200 242.143 M83.461 240.706 C 83.715 240.868,84.137 242.800,84.398 245.000 C 84.660 247.200,84.929 249.057,84.997 249.126 C 85.064 249.196,85.439 247.895,85.830 246.236 C 86.825 242.019,88.240 240.634,91.574 240.614 C 92.870 240.606,94.057 240.725,94.211 240.878 C 94.603 241.269,93.644 245.158,92.800 246.600 C 92.413 247.260,91.891 248.445,91.640 249.233 C 91.388 250.021,90.826 251.364,90.391 252.217 C 89.956 253.071,89.600 254.100,89.600 254.505 C 89.600 254.967,89.083 255.457,88.213 255.820 C 86.712 256.447,82.800 256.617,82.800 256.056 C 82.800 255.867,82.389 255.102,81.888 254.356 C 81.386 253.610,80.738 252.190,80.448 251.200 C 80.158 250.210,79.687 249.130,79.400 248.800 C 79.113 248.470,78.652 247.433,78.375 246.495 C 78.097 245.558,77.630 244.591,77.335 244.346 C 75.109 242.498,80.886 239.066,83.461 240.706 M111.953 242.001 C 115.064 245.143,112.568 249.586,107.528 249.881 C 104.385 250.064,103.414 250.797,104.966 251.814 C 105.797 252.359,106.577 252.463,108.602 252.301 C 111.374 252.078,111.710 252.247,112.149 254.087 C 112.373 255.026,112.231 255.267,111.108 255.848 C 108.539 257.176,104.311 257.050,100.305 255.524 C 97.506 254.458,95.973 248.661,97.600 245.294 C 98.040 244.384,98.400 243.455,98.400 243.230 C 98.400 243.005,98.940 242.541,99.600 242.200 C 100.260 241.859,100.800 241.416,100.800 241.216 C 100.800 239.674,110.312 240.343,111.953 242.001 M140.179 241.255 L 141.265 242.109 142.976 241.255 C 148.513 238.489,150.450 240.491,150.710 249.248 C 150.915 256.100,150.756 256.400,146.919 256.400 C 144.404 256.400,144.501 256.641,144.293 249.888 C 144.131 244.632,143.672 243.474,142.182 244.564 C 141.492 245.068,141.383 245.731,141.259 250.179 L 141.117 255.222 139.978 255.811 C 138.402 256.627,134.962 256.598,134.643 255.767 C 134.328 254.948,134.336 243.278,134.652 242.099 C 135.093 240.455,138.500 239.934,140.179 241.255 M161.893 241.200 C 162.704 242.148,163.325 242.213,163.984 241.420 C 164.559 240.726,167.584 240.209,168.995 240.563 L 170.000 240.815 170.000 248.827 C 170.000 255.054,169.870 257.090,169.418 257.964 C 167.099 262.449,154.315 262.310,156.224 257.821 C 156.740 256.607,156.760 256.601,159.486 256.733 C 161.730 256.842,162.403 256.726,163.181 256.095 C 164.938 254.673,164.067 254.000,160.472 254.000 C 154.445 254.000,152.706 251.085,154.389 243.800 C 155.116 240.652,159.980 238.966,161.893 241.200 M207.435 240.706 C 208.210 241.230,208.375 242.888,207.768 244.061 C 207.086 245.382,207.131 245.373,204.876 244.588 C 203.415 244.079,203.035 244.071,202.376 244.532 C 201.395 245.219,201.888 245.694,205.350 247.393 C 213.940 251.608,206.562 258.956,196.438 256.268 C 192.470 255.214,193.270 251.969,197.417 252.302 C 202.410 252.703,203.381 250.480,198.504 249.813 C 193.442 249.120,192.979 241.969,197.914 240.673 C 199.078 240.367,206.974 240.395,207.435 240.706 M272.429 242.007 C 279.716 249.317,271.745 259.393,261.415 255.931 C 256.922 254.426,255.839 244.684,259.897 242.290 C 260.614 241.867,261.200 241.371,261.200 241.188 C 261.200 239.637,270.762 240.335,272.429 242.007 M291.558 240.766 C 292.155 241.144,291.980 244.180,291.323 244.837 C 291.136 245.024,290.114 244.915,289.052 244.596 C 286.551 243.843,285.094 244.378,286.229 245.632 C 286.611 246.054,287.121 246.404,287.362 246.409 C 287.603 246.414,288.250 246.770,288.800 247.200 C 289.350 247.630,290.113 247.986,290.495 247.991 C 292.532 248.017,293.411 251.632,292.005 254.200 C 290.285 257.339,278.656 257.709,278.065 254.644 C 277.703 252.762,278.681 252.099,281.538 252.291 C 286.345 252.614,287.073 250.443,282.374 249.796 C 277.325 249.102,276.892 242.323,281.795 240.740 C 283.022 240.343,290.924 240.364,291.558 240.766 M308.400 241.200 C 310.384 243.184,308.662 245.804,305.861 245.065 C 304.954 244.826,304.433 244.985,303.312 245.840 C 300.573 247.929,302.254 252.700,305.586 252.296 C 309.002 251.882,310.734 254.386,308.007 255.796 C 303.356 258.202,296.896 256.077,296.179 251.905 C 295.165 246.007,296.552 242.653,300.800 240.728 C 302.293 240.052,307.580 240.380,308.400 241.200 M326.776 241.776 C 331.686 246.484,330.063 254.285,323.776 256.192 C 320.049 257.323,315.413 256.532,313.533 254.445 C 311.369 252.044,311.589 244.417,313.875 242.552 C 317.132 239.895,324.361 239.460,326.776 241.776 M339.088 240.955 C 339.153 241.019,339.597 242.674,340.075 244.631 C 340.962 248.257,341.919 248.330,341.982 244.776 C 342.047 241.106,348.365 240.902,348.428 244.568 C 348.489 248.127,349.170 248.315,349.988 245.000 C 350.844 241.531,355.416 239.143,357.788 240.926 C 358.709 241.618,358.174 245.514,356.844 247.800 C 356.459 248.460,355.933 249.845,355.673 250.877 C 354.707 254.712,353.180 256.400,350.676 256.400 C 347.961 256.400,346.806 255.967,346.539 254.849 C 345.766 251.618,344.054 250.975,344.013 253.900 C 343.991 255.437,342.634 256.401,340.500 256.395 C 337.692 256.386,336.921 256.063,336.367 254.662 C 336.093 253.968,335.653 253.130,335.390 252.800 C 335.128 252.470,334.694 251.300,334.426 250.200 C 334.159 249.100,333.709 247.930,333.426 247.600 C 331.644 245.518,331.981 241.390,333.969 240.955 C 334.536 240.831,335.180 240.662,335.400 240.579 C 335.805 240.425,338.871 240.738,339.088 240.955 M64.438 244.554 C 64.185 244.859,63.872 246.254,63.741 247.654 C 63.277 252.645,65.668 255.004,66.828 250.697 C 67.792 247.116,66.043 242.620,64.438 244.554 M104.480 244.480 C 103.173 245.787,104.334 248.946,105.675 247.733 C 106.789 246.724,106.443 244.000,105.200 244.000 C 105.068 244.000,104.744 244.216,104.480 244.480 M319.709 245.084 C 318.571 246.824,318.737 250.855,320.002 252.202 L 320.989 253.253 321.695 252.382 C 322.227 251.724,322.400 250.782,322.400 248.529 C 322.400 244.164,321.263 242.708,319.709 245.084 M105.600 246.000 C 105.600 246.634,105.420 247.264,105.200 247.400 C 104.958 247.550,104.800 246.996,104.800 246.000 C 104.800 245.004,104.958 244.450,105.200 244.600 C 105.420 244.736,105.600 245.366,105.600 246.000 M162.011 244.778 C 159.950 245.305,159.903 249.486,161.950 250.259 C 163.352 250.788,163.586 250.315,163.595 246.924 C 163.601 244.622,163.446 244.412,162.011 244.778 M264.913 244.721 C 263.151 245.842,264.093 252.400,266.017 252.400 C 267.535 252.400,268.000 251.462,268.000 248.400 C 268.000 244.873,266.844 243.495,264.913 244.721 M65.961 246.060 C 66.677 248.114,66.182 252.000,65.204 252.000 C 64.661 252.000,64.400 250.830,64.400 248.400 C 64.400 244.755,65.126 243.666,65.961 246.060 M321.600 247.967 C 321.600 251.846,321.351 252.747,320.565 251.712 C 319.556 250.381,319.944 244.800,321.047 244.800 C 321.471 244.800,321.600 245.537,321.600 247.967 M267.200 248.800 C 267.200 251.230,266.896 251.629,265.650 250.839 C 264.881 250.352,264.848 247.267,265.606 246.788 C 266.900 245.970,267.200 246.349,267.200 248.800 M246.909 252.400 C 246.909 253.390,246.987 253.795,247.082 253.300 C 247.178 252.805,247.178 251.995,247.082 251.500 C 246.987 251.005,246.909 251.410,246.909 252.400 " stroke="none" fill="#8c7c74" fill-rule="evenodd"></path></g></svg>